# xmcd
#
# Track frame offsets:
#	150
#	17407
#	34631
#	46828
#	60640
#	73302
#	87348
#	101581
#	118975
#	135721
#	151647
#	166780
#	182070
#	196535
#	210294
#	227225
#	242206
#	259140
#	272741
#
# Disc length: 3855 seconds
#
# Revision: 1
# Processed by: cddbd v1.5.2PL0 Copyright (c) Steve Scherf et al.
# Submitted via: audiograbber 1.83.01
#
DISCID=fb0f0d13
DTITLE=Various Artist - Hott Country 187
DYEAR=2011
DGENRE=Country
TTITLE0=Band Perry - All Your Life
TTITLE1=Kelly Clarkson - Mr. Know It All
TTITLE2=Chris Young - You
TTITLE3=Lady Antebellum - We Owned The Night
TTITLE4=Colt Ford - Country Thang
TTITLE5=Emerson Drive - Sleep It Off
TTITLE6=Eric Church - Drink In My Hand
TTITLE7=Reba McEntire - Somebody's Chelsey
TTITLE8=Charlie Major - Keep On Livin
TTITLE9=Zac Brown Band - Keep In Mind
TTITLE10=Jason Aldean - Tattoos On This Town
TTITLE11=Tara Oram - Kiss Me When I Fall
TTITLE12=Marlee Scott - Beautiful Maybe
TTITLE13=Bryce Pallister - Down Dusty Roads
TTITLE14=Steel Magnolia - Bulletproof
TTITLE15=Jake Matthews - Might Take All Night
TTITLE16=Scotty McCreery - The Trouble With Girls
TTITLE17=Dirt Drifters - Always A Reason
TTITLE18=Aaron Pritchett - Coming Clean
EXTD=September 2011
EXTT0=
EXTT1=
EXTT2=
EXTT3=
EXTT4=
EXTT5=
EXTT6=
EXTT7=
EXTT8=
EXTT9=
EXTT10=
EXTT11=
EXTT12=
EXTT13=
EXTT14=
EXTT15=
EXTT16=
EXTT17=
EXTT18=
PLAYORDER=
